<svg id="Layer_1" data-name="Layer 1" xmlns="http://www.w3.org/2000/svg" xmlns:xlink="http://www.w3.org/1999/xlink" viewBox="0 0 510.24 64.87"><defs><style>.cls-1,.cls-4{fill:none;}.cls-2{fill:#0069b4;}.cls-3{clip-path:url(#clip-path);}.cls-4{stroke:#0069b4;stroke-width:0.5px;}</style><clipPath id="clip-path"><rect class="cls-1" y="52.08" width="510.24" height="12.78"/></clipPath></defs><path class="cls-2" d="M22.9,25.3c.44,0,.38-.25.38-.71V22.31c0-.47,0-.62.23-.62.93,0,1.19-.08,1.19-.92V12.32c0-2.3-1.63-1.92-2.08-2.76C22,8.42,23.83,8.42,23.15,6a1.31,1.31,0,0,0-1.45-.9,1.31,1.31,0,0,0-1.45.9c-.68,2.46,1.19,2.46.54,3.6-.46.84-2.09.46-2.09,2.76v8.45c0,.84.26.92,1.2.92.26,0,.22.15.22.62v2.28c0,.46-.06.71.38.71h2.4"/><path class="cls-2" d="M15.5,7c-.83.89-2.14,3-1.29,4.67C16,12.31,15.82,6.11,18,6.22c1.07,1-.32,3.92-.76,5.2-.53,1.59-1,4.91-2,6.52-.85,1.34-.21,5.55-.48,7-.72.72-2.68.21-3.51.07,0-1.66-.22-3-.49-5.63,0-.53-.59-8.74-.13-9.73.94-2.06,6.06-6,6.76-6.76S20.19,0,21,0c.58.4.24,1.34.1,1.72C20.3,3.78,16.71,5.82,15.5,7"/><path class="cls-2" d="M28,7c.8.89,2.12,3,1.28,4.67-1.77.67-1.63-5.53-3.81-5.42-1,1,.35,3.92.78,5.2.54,1.59,1,4.91,2,6.52.84,1.34.22,5.55.46,7,.75.72,2.68.21,3.54.07a55.67,55.67,0,0,1,.46-5.63c.05-.53.61-8.74.16-9.73-.94-2.06-6.06-6-6.76-6.76S23.3,0,22.47,0c-.61.4-.24,1.34-.1,1.72C23.2,3.78,26.79,5.82,28,7"/><path class="cls-2" d="M8.05,4.19c-.45.43-1.48.73-2.17,1.66-.27-.5.43-1.74,1.26-2.46A10.4,10.4,0,0,1,9.31,2c.27.62-.69,1.56-1.26,2.23"/><path class="cls-2" d="M6.63,7.55A16.33,16.33,0,0,0,3.94,9.89,8,8,0,0,1,3.81,6c.38-1.23,1-2.6,2-3a11.41,11.41,0,0,0-.64,3c-.46,1.8-.73,1.85-.62,2.1.1,0,.69-.94,1.42-1.67s1.93-1,2.63-1.56a9,9,0,0,1-2,2.77"/><path class="cls-2" d="M2.84,15a9.78,9.78,0,0,1-1.23-4.84c0-1.1.59-3.65,1.39-4-.24,2.31.38,2.52.14,4.43,0,.1-.27,2.09-.27,2.2.32,0,0-1.83,3.7-4.38-.8,1.4-.43,1.83-1.88,3.68A6.76,6.76,0,0,0,2.84,15"/><path class="cls-2" d="M4.32,16.77A5,5,0,0,0,3.49,19C1.63,17.92-.46,13.65.31,11.53c.49,1.61,1.16,2,1.64,3.3.84,2,.71,2.63,1.24,3.09a7.5,7.5,0,0,1,.59-3.2,18.79,18.79,0,0,1,1.29-2.15,5.14,5.14,0,0,1-.75,4.2"/><path class="cls-2" d="M6,20.42A22.39,22.39,0,0,1,5.55,24a7.78,7.78,0,0,1-4.86-6.5c1,2.2,2.39,2.18,4.25,5.29.16-1.18-.33-.29-.38-2.52s.54-2.42.62-3.87c.59.64.81,3.22.81,4"/><path class="cls-2" d="M8.64,25.06c.25,1.21.35,2.64.54,3.69-1.82-.67-2.28-.16-4.46-1.54-1-.53-2.77-2.79-2.65-4.4,2.14,2.39,2.52,2.12,3.57,3s1.74,1.93,2.44,1.77c.05-.64-1.58-2-1.37-6.07a11.23,11.23,0,0,1,1.93,3.54"/><path class="cls-2" d="M12.27,28.08a13.58,13.58,0,0,0,1.88,2.81,15.52,15.52,0,0,1-3.79.76c-.91,0-4.13-.86-5.21-3.06,1.86,1,1.88.75,4.35,1.28a34.91,34.91,0,0,0,3.52.92,15.65,15.65,0,0,1-2.41-2c-.95-1.26-.73-2.69-1.56-3.74.56-.16,2.76,2.42,3.22,3"/><path class="cls-2" d="M35.29,4.19c.43.43,1.48.73,2.15,1.66.3-.5-.42-1.74-1.26-2.46A8.89,8.89,0,0,0,34,2c-.26.62.7,1.56,1.29,2.23"/><path class="cls-2" d="M36.72,7.55a17.7,17.7,0,0,1,2.66,2.34A8,8,0,0,0,39.51,6c-.34-1.23-1-2.6-2-3a10.59,10.59,0,0,1,.65,3c.45,1.8.72,1.85.61,2.1-.1,0-.69-.94-1.42-1.67s-1.91-1-2.63-1.56a9.51,9.51,0,0,0,2,2.77"/><path class="cls-2" d="M40.48,15a9.59,9.59,0,0,0,1.24-4.84c-.06-1.1-.6-3.65-1.37-4,.21,2.31-.41,2.52-.14,4.43,0,.1.24,2.09.24,2.2-.29,0,0-1.83-3.68-4.38.78,1.4.4,1.83,1.86,3.68A6.34,6.34,0,0,1,40.48,15"/><path class="cls-2" d="M39,16.77a5.28,5.28,0,0,1,.8,2.22c1.86-1.07,4-5.34,3.17-7.46-.45,1.61-1.15,2-1.61,3.3-.86,2-.72,2.63-1.23,3.09a7.68,7.68,0,0,0-.62-3.2,15.25,15.25,0,0,0-1.29-2.15,5.12,5.12,0,0,0,.78,4.2"/><path class="cls-2" d="M37.34,20.42A23.48,23.48,0,0,0,37.79,24a7.83,7.83,0,0,0,4.87-6.5c-1,2.2-2.4,2.18-4.28,5.29-.16-1.18.32-.29.38-2.52s-.54-2.42-.62-3.87c-.59.64-.8,3.22-.8,4"/><path class="cls-2" d="M34.68,25.06c-.25,1.21-.33,2.64-.51,3.69,1.8-.67,2.25-.16,4.43-1.54,1-.53,2.79-2.79,2.69-4.4-2.15,2.39-2.56,2.12-3.58,3s-1.77,1.93-2.47,1.77c-.05-.64,1.58-2,1.4-6.07a10.65,10.65,0,0,0-2,3.54"/><path class="cls-2" d="M31.05,28.08a12,12,0,0,1-1.88,2.81,15.84,15.84,0,0,0,3.81.76c.89,0,4.11-.86,5.19-3.06-1.85,1-1.88.75-4.35,1.28a32.9,32.9,0,0,1-3.52.92,14.61,14.61,0,0,0,2.42-2c.94-1.26.72-2.69,1.58-3.74-.59-.16-2.79,2.42-3.25,3"/><path class="cls-2" d="M17.08,35.65l-.54-.27a11.82,11.82,0,0,1,9.27-3.84c5.86.32,5.46,1.69,8.6,1.48.35,0-.27.43-.27.43a10.84,10.84,0,0,1-6.85-.11c-3.76-1.29-6.21-2.07-10.21,2.31"/><path class="cls-2" d="M26.35,35.65l.54-.27a11.72,11.72,0,0,0-9.24-3.84C11.76,31.86,12.16,33.23,9,33c-.35,0,.27.43.27.43a10.84,10.84,0,0,0,6.85-.11c3.79-1.29,6.23-2.07,10.21,2.31"/><path class="cls-2" d="M67.87,17.53c0,5.62-3,8.31-9.21,8.31s-9.25-2.69-9.25-8.31V5.12h6.24v11c0,2.06,0,4.64,3,4.64s3-2.58,3-4.64v-11h6.24V17.53"/><polygon class="cls-2" points="71.61 5.12 77.98 5.12 83.88 15.95 83.94 15.95 83.94 5.12 89.83 5.12 89.83 25.36 83.77 25.36 77.56 14.3 77.5 14.3 77.5 25.36 71.61 25.36 71.61 5.12 71.61 5.12"/><polygon class="cls-2" points="93.66 5.12 99.9 5.12 99.9 12.15 105.74 12.15 105.74 5.12 111.97 5.12 111.97 25.36 105.74 25.36 105.74 17.34 99.9 17.34 99.9 25.36 93.66 25.36 93.66 5.12 93.66 5.12"/><path class="cls-2" d="M127.93,12.66a3.24,3.24,0,0,0-3.26-3c-2.92,0-3.85,2.84-3.85,5.56s.93,5.55,3.85,5.55c2.1,0,2.92-1.47,3.29-3.37h6.12c0,4.08-3.32,8.42-9.24,8.42-6.55,0-10.26-4.62-10.26-10.6,0-6.38,4-10.6,10.26-10.6,5.56,0,8.62,3,9.16,8h-6.07"/><path class="cls-2" d="M136.69,25.36h6.23V18.3h3.32c2.47,0,2.64,2,2.81,3.94a14.41,14.41,0,0,0,.51,3.12h6.24c-.57-.94-.6-3.35-.69-4.34-.22-2.52-1.27-4.39-3-5,2.07-.76,3-3,3-5.07,0-3.83-3.06-5.78-6.6-5.78H136.69V25.36m6.23-15.42h2.92c2.39,0,3.1.73,3.1,2,0,1.81-1.59,2-2.75,2h-3.27v-4Z"/><polygon class="cls-2" points="51.44 30.01 49.41 30.01 49.41 28.75 54.97 28.75 54.97 30.01 52.93 30.01 52.93 35.54 51.44 35.54 51.44 30.01 51.44 30.01"/><path class="cls-2" d="M55.43,28.75h1.35v2.56h0a1.73,1.73,0,0,1,1.43-.82c1.44,0,1.8.81,1.8,2v3H58.69V32.76c0-.8-.24-1.2-.87-1.2s-1,.4-1,1.4v2.58H55.43V28.75"/><path class="cls-2" d="M64.16,32.55c-.13-.68-.42-1-1.08-1a1.07,1.07,0,0,0-1.12,1h2.2m-2.2.86c0,.85.46,1.24,1.21,1.24A1.1,1.1,0,0,0,64.23,34h1.19a2.21,2.21,0,0,1-2.3,1.65,2.39,2.39,0,0,1-2.5-2.58,2.46,2.46,0,0,1,2.5-2.6c1.67,0,2.48,1.41,2.39,2.92Z"/><path class="cls-2" d="M74.26,33c0,1.84-1.08,2.73-2.89,2.73s-2.89-.89-2.89-2.73V28.75H70V33c0,.74.19,1.47,1.4,1.47,1.06,0,1.4-.46,1.4-1.47V28.75h1.49V33"/><polygon class="cls-2" points="75.26 28.75 76.74 28.75 79.57 33.3 79.59 33.3 79.59 28.75 80.99 28.75 80.99 35.54 79.5 35.54 76.68 31 76.66 31 76.66 35.54 75.26 35.54 75.26 28.75 75.26 28.75"/><path class="cls-2" d="M84.24,35.54h1.49V32.89h1.49c.75,0,1,.31,1.13,1a7.88,7.88,0,0,0,.24,1.63h1.49a3.69,3.69,0,0,1-.29-1.61c0-.68-.25-1.39-1-1.58v0a1.68,1.68,0,0,0,1.07-1.7,1.86,1.86,0,0,0-2-1.87H84.24v6.78m1.49-5.63h1.63c.67,0,1,.29,1,.94s-.36,1-1,1H85.73V29.91Z"/><path class="cls-2" d="M95.43,33.41c.1-1.51-.71-2.92-2.38-2.92a2.47,2.47,0,0,0-2.51,2.6,2.4,2.4,0,0,0,2.51,2.58A2.21,2.21,0,0,0,95.35,34H94.16a1.1,1.1,0,0,1-1.06.63c-.75,0-1.17-.39-1.21-1.24h3.54m-3.54-.86a1.06,1.06,0,0,1,1.12-1c.66,0,.95.36,1.08,1Z"/><path class="cls-2" d="M96.32,31.53h-.8v-.9h.8v-.38A1.45,1.45,0,0,1,98,28.75c.23,0,.48,0,.71,0v1a4,4,0,0,0-.5,0c-.36,0-.51.15-.51.56v.3h.93v.9h-.93v4H96.32v-4"/><path class="cls-2" d="M103.63,35.54h-1.28v-.69h0a1.77,1.77,0,0,1-1.5.82c-1.44,0-1.8-.81-1.8-2v-3h1.35V33.4c0,.81.24,1.21.86,1.21s1-.41,1-1.41V30.63h1.35v4.91"/><path class="cls-2" d="M109.16,30.63h-1.28v.65h0a1.52,1.52,0,0,0-1.46-.79,2.19,2.19,0,0,0-2.11,2.43c0,1.35.63,2.47,2.1,2.47a1.63,1.63,0,0,0,1.47-.76h0v.65c0,.7-.33,1.22-1.08,1.22a.92.92,0,0,1-1-.68h-1.34c.07,1.12,1.2,1.58,2.17,1.58,2.26,0,2.54-1.37,2.54-2.18V30.63m-2.43,3.75c-.82,0-1.09-.77-1.09-1.47s.33-1.4,1.09-1.4,1.15.71,1.15,1.51a1.21,1.21,0,0,1-1.15,1.36"/><path class="cls-2" d="M114.73,33.41c.09-1.51-.71-2.92-2.38-2.92a2.46,2.46,0,0,0-2.51,2.6,2.4,2.4,0,0,0,2.51,2.58A2.2,2.2,0,0,0,114.64,34h-1.18a1.13,1.13,0,0,1-1.07.63c-.75,0-1.17-.39-1.2-1.24h3.54m-3.54-.86a1.06,1.06,0,0,1,1.12-1c.65,0,1,.36,1.07,1Z"/><path class="cls-2" d="M120,33.41c.09-1.51-.71-2.92-2.38-2.92a2.46,2.46,0,0,0-2.51,2.6,2.4,2.4,0,0,0,2.51,2.58,2.22,2.22,0,0,0,2.3-1.65h-1.19a1.13,1.13,0,0,1-1.07.63c-.75,0-1.16-.39-1.2-1.24H120m-3.54-.86a1.06,1.06,0,0,1,1.12-1c.65,0,1,.36,1.07,1Z"/><path class="cls-2" d="M122.87,35.54h1.51l.53-1.51h2.54l.51,1.51h1.55L127,28.76h-1.53l-2.57,6.78Zm3.31-5.11h0l.86,2.49H125.3l.88-2.49Z"/><path class="cls-2" d="M134.47,30.63h-1.29v.65h0a1.52,1.52,0,0,0-1.46-.79,2.19,2.19,0,0,0-2.11,2.43c0,1.35.63,2.47,2.1,2.47a1.63,1.63,0,0,0,1.47-.76h0v.65c0,.7-.33,1.22-1.08,1.22a.93.93,0,0,1-1-.68h-1.34c.07,1.12,1.2,1.58,2.17,1.58,2.26,0,2.55-1.37,2.55-2.18V30.63M132,34.38c-.82,0-1.09-.77-1.09-1.47s.33-1.4,1.09-1.4,1.15.71,1.15,1.51A1.21,1.21,0,0,1,132,34.38"/><path class="cls-2" d="M140,33.41c.09-1.51-.71-2.92-2.38-2.92a2.46,2.46,0,0,0-2.51,2.6,2.4,2.4,0,0,0,2.51,2.58A2.19,2.19,0,0,0,139.94,34h-1.18a1.12,1.12,0,0,1-1.07.63c-.75,0-1.16-.39-1.2-1.24H140m-3.54-.86a1.06,1.06,0,0,1,1.12-1c.65,0,.95.36,1.07,1Z"/><path class="cls-2" d="M140.62,30.63h1.28v.68h0a1.75,1.75,0,0,1,1.5-.82c1.43,0,1.79.81,1.79,2v3h-1.34V32.76c0-.8-.24-1.2-.87-1.2s-1,.4-1,1.4v2.58h-1.35V30.63"/><path class="cls-2" d="M149.38,32.36a.91.91,0,0,0-1-.85c-.87,0-1.15.87-1.15,1.59s.27,1.55,1.12,1.55a1,1,0,0,0,1.07-1h1.3a2.19,2.19,0,0,1-2.36,2,2.39,2.39,0,0,1-2.48-2.52,2.43,2.43,0,0,1,2.51-2.66,2.08,2.08,0,0,1,2.3,1.87h-1.32"/><path class="cls-2" d="M153.74,36.15a1.54,1.54,0,0,1-1.69,1.11,7.5,7.5,0,0,1-.82,0V36.11a6.74,6.74,0,0,0,.79,0,.63.63,0,0,0,.46-.92l-1.73-4.6h1.45L153.31,34h0l1.07-3.36h1.4l-2.06,5.52"/><g class="cls-3"><polyline class="cls-4" points="-223.36 54.08 49.81 54.08 58.59 62.87 67.08 54.08 806.1 54.08"/></g></svg>